<svg xmlns="http://www.w3.org/2000/svg" width="416.7" height="416.7" viewBox="0 0 4167 4167">
  <metadata><?xpacket begin="﻿" id="W5M0MpCehiHzreSzNTczkc9d"?>
<x:xmpmeta xmlns:x="adobe:ns:meta/" x:xmptk="Adobe XMP Core 5.6-c145 79.163499, 2018/08/13-16:40:22        ">
   <rdf:RDF xmlns:rdf="http://www.w3.org/1999/02/22-rdf-syntax-ns#">
      <rdf:Description rdf:about=""
            xmlns:xmp="http://ns.adobe.com/xap/1.0/">
         <xmp:CreatorTool>Adobe Photoshop CC 2019 (Windows)</xmp:CreatorTool>
      </rdf:Description>
   </rdf:RDF>
</x:xmpmeta>
                                                                                                    
                                                                                                    
                                                                                                    
                                                                                                    
                                                                                                    
                                                                                                    
                                                                                                    
                                                                                                    
                                                                                                    
                                                                                                    
                                                                                                    
                                                                                                    
                                                                                                    
                                                                                                    
                                                                                                    
                                                                                                    
                                                                                                    
                                                                                                    
                                                                                                    
                                                                                                    
                           
<?xpacket end="w"?></metadata>
<defs>
    <style>
      .cls-1 {
        fill: #fff;
        fill-rule: evenodd;
      }
    </style>
  </defs>
  <path id="GitFit" class="cls-1" d="M1347.45,1552.03q-102.015-43.3-219.29-43.31-224.21,0-364.082,156.69-117.915,131.715-117.907,309.73,0,129.9,63.829,242.06,63.843,112.2,173.484,172.86t249.546,60.66q130.71,0,227.84-55.44t158.21-160.83q61.08-105.375,61.09-222.96l-1.22-37.77H1127.17v161h260.08q-37.26,78.42-98,115.2t-149.3,36.8q-136.17,0-228.966-90.16-92.812-90.135-92.813-219.9,0-125.49,89.454-213.22,89.438-87.7,221.935-87.72,152.025,0,266.22,120.91l120.28-118.94q-82.47-89.07-168.61-125.66h0Zm360.65-29.18q-31.125,31.125-31.12,75.04,0,45.78,31.42,77.8,31.425,32.04,76,32.03,43.3,0,74.45-31.42,31.125-31.41,31.13-75.97,0-45.135-31.44-76.88-31.425-31.725-75.38-31.73Q1739.225,1491.72,1708.1,1522.85Zm-8.12,905.87h167v-664h-167v664Zm337.68-664h-85v143h85v521h167v-521h99v-143h-99v-245h-167v245Zm375.75,664h170v-404h276v-165h-276v-164h276v-165h-446v898Zm569.11-905.87q-31.125,31.125-31.13,75.04,0,45.78,31.42,77.8,31.44,32.04,76,32.03,43.32,0,74.46-31.42t31.12-75.97q0-45.135-31.44-76.88-31.425-31.725-75.37-31.73T2982.52,1522.85Zm-8.13,905.87h167v-664h-167v664Zm337.68-664h-85v143h85v521h167v-521h99v-143h-99v-245h-167v245Z"/>
  <path id="Init_to_win_it" data-name="Init to win it" class="cls-1" d="M1581.27,2750.84h50.9V2481.49h-50.9v269.35Zm103.08,0h49.99v-79.92q0-31.1,2.19-40.42,4.2-17.925,15.08-28.08a36.82,36.82,0,0,1,26.03-10.15q11.685,0,19.63,6.13t11.14,17.83q3.21,11.715,3.2,47.37v87.24h49.44V2619.19q0-34.425-17.37-52-20.655-20.685-50.28-20.69a74.573,74.573,0,0,0-28.25,5.6q-13.8,5.61-30.81,19.94v-20.42h-49.99v199.22Zm222.08-271.91a30.728,30.728,0,0,0-9.31,22.52,32.183,32.183,0,0,0,9.4,23.35,30.637,30.637,0,0,0,22.74,9.61,30.19,30.19,0,0,0,22.27-9.43,31.222,31.222,0,0,0,9.31-22.79,31.626,31.626,0,0,0-9.4-23.08A31.57,31.57,0,0,0,1906.43,2478.93Zm-2.53,271.91h49.99V2551.62H1903.9v199.22Zm101.44-199.22H1979.7v43.03h25.64v156.19h49.99V2594.65h29.66v-43.03h-29.66V2478.2h-49.99v73.42Zm217.34,0h-25.63v43.03h25.63v156.19h49.99V2594.65h29.67v-43.03h-29.67V2478.2h-49.99v73.42Zm130.92,21.98q-34.23,31.125-34.24,77.82,0,43.575,30.31,74.06t73.15,30.49a105.462,105.462,0,0,0,53.28-13.82,101.118,101.118,0,0,0,38.18-38.36,104.634,104.634,0,0,0,14.01-52.74,103.393,103.393,0,0,0-52.65-90.45,105.573,105.573,0,0,0-53-14.1q-39.015,0-69.04,27.1h0Zm109.02,35.98q15.315,16.02,15.31,41.65,0,25.65-15.59,41.93-15.585,16.305-39.06,16.3-23.49,0-38.8-16.11t-15.31-42.12q0-25.26,15.5-41.47t38.79-16.2Q2447.31,2593.56,2462.62,2609.58Zm261.13,141.26h31.31l43.77-113.52,42.48,113.52h31.67l72.7-199.22h-49.25l-40.11,112.06L2814,2551.62h-29.93l-43.11,113.35-40.06-113.35h-48.92Zm247.26-271.91a30.728,30.728,0,0,0-9.31,22.52,32.143,32.143,0,0,0,9.4,23.35,30.631,30.631,0,0,0,22.73,9.61,30.212,30.212,0,0,0,22.28-9.43,31.262,31.262,0,0,0,9.31-22.79,31.635,31.635,0,0,0-9.41-23.08A31.558,31.558,0,0,0,2971.01,2478.93Zm-2.54,271.91h49.99V2551.62h-49.99v199.22Zm95.4,0h49.99v-79.92q0-31.1,2.19-40.42,4.2-17.925,15.07-28.08a36.837,36.837,0,0,1,26.03-10.15q11.7,0,19.64,6.13t11.14,17.83q3.2,11.715,3.2,47.37v87.24h49.44V2619.19q0-34.425-17.37-52-20.67-20.685-50.28-20.69a74.573,74.573,0,0,0-28.25,5.6q-13.815,5.61-30.81,19.94v-20.42h-49.99v199.22Zm327-271.91a30.728,30.728,0,0,0-9.31,22.52,32.143,32.143,0,0,0,9.4,23.35,30.631,30.631,0,0,0,22.73,9.61,30.212,30.212,0,0,0,22.28-9.43,31.222,31.222,0,0,0,9.31-22.79,31.666,31.666,0,0,0-9.4-23.08A31.57,31.57,0,0,0,3390.87,2478.93Zm-2.54,271.91h49.99V2551.62h-49.99v199.22Zm101.44-199.22h-25.63v43.03h25.63v156.19h49.99V2594.65h29.67v-43.03h-29.67V2478.2h-49.99v73.42Z"/>
</svg>
