<svg xmlns="http://www.w3.org/2000/svg" width="100" height="100" viewBox="0 0 1000 1000">
  <defs>
    <style>
      .cls-1 {
        fill: #003761;
        fill-rule: evenodd;
      }
    </style>
  </defs>
  <path id="G" class="cls-1" d="M556.132,397.355a133.011,133.011,0,0,0-52.588-10.4q-53.762,0-87.3,37.647-28.272,31.641-28.271,74.414a115.807,115.807,0,0,0,15.307,58.154,106.6,106.6,0,0,0,41.6,41.529q26.292,14.574,59.839,14.575,31.346,0,54.638-13.33t37.94-38.672a105.5,105.5,0,0,0,14.648-53.613l-0.293-9.082h-108.4V537.1h62.4q-8.946,19.044-23.536,27.978t-35.854,8.936q-32.7,0-54.991-21.68t-22.289-52.881q0-30.174,21.479-51.269t53.3-21.094q36.506,0,63.922,29l28.883-28.564q-19.776-21.386-40.43-30.176h0Z"/>
  <path id="F" class="cls-1" d="M565.994,714H606.74V617.237h66.25V577.919H606.74V538.892h66.25v-39.9h-107V714Z"/>
</svg>
